REM DIRINDEX 1\2,1\3,1\4,1\5,1\6
REM DIRNAME cjc129,folder01,folder02,folder03,folder04,folder05
TITLE ""
FILE "DISC2Track13.mp3" MP3
  TRACK 01 AUDIO
    TITLE "0:"
    INDEX 01 00:00:00
  TRACK 02 AUDIO
    TITLE "3:cjc129_1310"
    INDEX 01 00:00:09
  TRACK 03 AUDIO
    TITLE "0:"
    INDEX 01 00:01:13
  TRACK 04 AUDIO
    TITLE "5:cjc129_1311"
    INDEX 01 00:01:46
  TRACK 05 AUDIO
    TITLE "0:"
    INDEX 01 00:03:49
  TRACK 06 AUDIO
    TITLE "4:cjc129_1312"
    INDEX 01 00:04:44
  TRACK 07 AUDIO
    TITLE "0:"
    INDEX 01 00:05:50
  TRACK 08 AUDIO
    TITLE "6:cjc129_1313"
    INDEX 01 00:06:08
  TRACK 09 AUDIO
    TITLE "0:"
    INDEX 01 00:12:16
  TRACK 10 AUDIO
    TITLE "3:cjc129_1314"
    INDEX 01 00:13:65
  TRACK 11 AUDIO
    TITLE "0:"
    INDEX 01 00:14:68
  TRACK 12 AUDIO
    TITLE "5:cjc129_1315"
    INDEX 01 00:15:25
  TRACK 13 AUDIO
    TITLE "0:"
    INDEX 01 00:17:35
  TRACK 14 AUDIO
    TITLE "4:cjc129_1316"
    INDEX 01 00:18:23
  TRACK 15 AUDIO
    TITLE "0:"
    INDEX 01 00:19:26
  TRACK 16 AUDIO
    TITLE "6:cjc129_1317"
    INDEX 01 00:19:56
  TRACK 17 AUDIO
    TITLE "0:"
    INDEX 01 00:24:43
  TRACK 18 AUDIO
    TITLE "3:cjc129_1318"
    INDEX 01 00:26:18
  TRACK 19 AUDIO
    TITLE "0:"
    INDEX 01 00:27:47
  TRACK 20 AUDIO
    TITLE "5:cjc129_1319"
    INDEX 01 00:28:04
  TRACK 21 AUDIO
    TITLE "0:"
    INDEX 01 00:30:20
  TRACK 22 AUDIO
    TITLE "4:cjc129_1320"
    INDEX 01 00:31:12
  TRACK 23 AUDIO
    TITLE "0:"
    INDEX 01 00:32:41
  TRACK 24 AUDIO
    TITLE "6:cjc129_1321"
    INDEX 01 00:32:72
  TRACK 25 AUDIO
    TITLE "0:"
    INDEX 01 00:38:35
  TRACK 26 AUDIO
    TITLE "3:cjc129_1322"
    INDEX 01 00:40:11
  TRACK 27 AUDIO
    TITLE "0:"
    INDEX 01 00:41:53
  TRACK 28 AUDIO
    TITLE "5:cjc129_1323"
    INDEX 01 00:42:10
  TRACK 29 AUDIO
    TITLE "0:"
    INDEX 01 00:44:34
  TRACK 30 AUDIO
    TITLE "4:cjc129_1324"
    INDEX 01 00:45:24
  TRACK 31 AUDIO
    TITLE "0:"
    INDEX 01 00:46:64
  TRACK 32 AUDIO
    TITLE "6:cjc129_1325"
    INDEX 01 00:47:23
  TRACK 33 AUDIO
    TITLE "0:"
    INDEX 01 00:53:53
  TRACK 34 AUDIO
    TITLE "3:cjc129_1326"
    INDEX 01 00:55:28
  TRACK 35 AUDIO
    TITLE "0:"
    INDEX 01 00:56:61
  TRACK 36 AUDIO
    TITLE "5:cjc129_1327"
    INDEX 01 00:57:17
  TRACK 37 AUDIO
    TITLE "0:"
    INDEX 01 00:58:69
  TRACK 38 AUDIO
    TITLE "4:cjc129_1328"
    INDEX 01 00:59:61
  TRACK 39 AUDIO
    TITLE "0:"
    INDEX 01 01:01:17
  TRACK 40 AUDIO
    TITLE "6:cjc129_1329"
    INDEX 01 01:01:50
  TRACK 41 AUDIO
    TITLE "0:"
    INDEX 01 01:05:21
  TRACK 42 AUDIO
    TITLE "3:cjc129_1330"
    INDEX 01 01:06:69
  TRACK 43 AUDIO
    TITLE "0:"
    INDEX 01 01:09:50
  TRACK 44 AUDIO
    TITLE "5:cjc129_1331"
    INDEX 01 01:10:06
  TRACK 45 AUDIO
    TITLE "0:"
    INDEX 01 01:11:60
  TRACK 46 AUDIO
    TITLE "4:cjc129_1332"
    INDEX 01 01:12:50
  TRACK 47 AUDIO
    TITLE "0:"
    INDEX 01 01:15:29
  TRACK 48 AUDIO
    TITLE "6:cjc129_1333"
    INDEX 01 01:15:64
  TRACK 49 AUDIO
    TITLE "0:"
    INDEX 01 01:19:27
  TRACK 50 AUDIO
    TITLE "3:cjc129_1334"
    INDEX 01 01:21:02
  TRACK 51 AUDIO
    TITLE "0:"
    INDEX 01 01:22:13
  TRACK 52 AUDIO
    TITLE "5:cjc129_1335"
    INDEX 01 01:22:44
  TRACK 53 AUDIO
    TITLE "0:"
    INDEX 01 01:23:52
  TRACK 54 AUDIO
    TITLE "4:cjc129_1336"
    INDEX 01 01:24:41
  TRACK 55 AUDIO
    TITLE "0:"
    INDEX 01 01:25:53
  TRACK 56 AUDIO
    TITLE "6:cjc129_1337"
    INDEX 01 01:26:09
  TRACK 57 AUDIO
    TITLE "0:"
    INDEX 01 01:30:40
  TRACK 58 AUDIO
    TITLE "3:cjc129_1338"
    INDEX 01 01:32:17
  TRACK 59 AUDIO
    TITLE "0:"
    INDEX 01 01:33:44
  TRACK 60 AUDIO
    TITLE "5:cjc129_1339"
    INDEX 01 01:34:01
  TRACK 61 AUDIO
    TITLE "0:"
    INDEX 01 01:35:10
  TRACK 62 AUDIO
    TITLE "4:cjc129_1340"
    INDEX 01 01:36:00
  TRACK 63 AUDIO
    TITLE "0:"
    INDEX 01 01:37:26
  TRACK 64 AUDIO
    TITLE "6:cjc129_1341"
    INDEX 01 01:37:58
  TRACK 65 AUDIO
    TITLE "0:"
    INDEX 01 01:42:33
